<svg xmlns="http://www.w3.org/2000/svg" viewBox="0 0 1200 675" width="100%" height="100%">
  <defs>
    <!-- Google Fonts import -->
    <style>
      @import url('https://fonts.googleapis.com/css2?family=Plus+Jakarta+Sans:ital,wght@0,300;0,400;0,600;0,700;0,800;1,400&amp;display=swap');
      
      .brand-name {
        font-family: 'Plus Jakarta Sans', sans-serif;
        font-weight: 800;
        font-size: 20px;
        fill: #FFFFFF;
        letter-spacing: -0.5px;
      }
      
      .brand-sub {
        font-family: 'Plus Jakarta Sans', sans-serif;
        font-weight: 600;
        font-size: 14px;
        fill: #9CA3AF;
        letter-spacing: 0.5px;
      }

      .nav-link {
        font-family: 'Plus Jakarta Sans', sans-serif;
        font-weight: 600;
        font-size: 15px;
        fill: #9CA3AF;
        text-anchor: middle;
      }

      .btn-text {
        font-family: 'Plus Jakarta Sans', sans-serif;
        font-weight: 800;
        font-size: 14px;
        fill: #FFFFFF;
        text-anchor: middle;
        letter-spacing: 0.5px;
      }

      .tagline {
        font-family: 'Plus Jakarta Sans', sans-serif;
        font-weight: 800;
        font-size: 13px;
        fill: #06B6D4;
        letter-spacing: 1.8px;
      }

      .hero-title {
        font-family: 'Plus Jakarta Sans', sans-serif;
        font-weight: 800;
        font-size: 64px;
        fill: #FFFFFF;
        letter-spacing: -2px;
      }

      .hero-desc {
        font-family: 'Plus Jakarta Sans', sans-serif;
        font-weight: 400;
        font-size: 17px;
        fill: #9CA3AF;
      }

      .dash-label {
        font-family: 'Plus Jakarta Sans', sans-serif;
        font-weight: 700;
        font-size: 12px;
        fill: #6B7280;
        letter-spacing: 0.5px;
      }

      .dash-val {
        font-family: 'Plus Jakarta Sans', sans-serif;
        font-weight: 800;
        font-size: 24px;
        fill: #FFFFFF;
      }

      .dash-stat {
        font-family: 'Plus Jakarta Sans', sans-serif;
        font-weight: 700;
        font-size: 11px;
        fill: #06B6D4;
      }

      .dash-title {
        font-family: 'Plus Jakarta Sans', sans-serif;
        font-weight: 700;
        font-size: 15px;
        fill: #E5E7EB;
      }

      .dash-pill-text {
        font-family: 'Plus Jakarta Sans', sans-serif;
        font-weight: 800;
        font-size: 10px;
        fill: #00F2FE;
        text-anchor: middle;
        letter-spacing: 0.5px;
      }

      .chart-title {
        font-family: 'Plus Jakarta Sans', sans-serif;
        font-weight: 700;
        font-size: 10px;
        fill: #6B7280;
        letter-spacing: 1px;
      }

      /* Glowing filters */
      #blur {
        filter: blur(80px);
      }
    </style>

    <!-- Gradients -->
    <linearGradient id="brandGrad" x1="0%" y1="0%" x2="100%" y2="0%">
      <stop offset="0%" stop-color="#7C3AED"/>
      <stop offset="50%" stop-color="#2563EB"/>
      <stop offset="100%" stop-color="#06B6D4"/>
    </linearGradient>

    <linearGradient id="crecimientoGrad" x1="0%" y1="0%" x2="100%" y2="0%">
      <stop offset="0%" stop-color="#7C3AED"/>
      <stop offset="40%" stop-color="#2563EB"/>
      <stop offset="100%" stop-color="#06B6D4"/>
    </linearGradient>

    <linearGradient id="btnGrad" x1="0%" y1="0%" x2="100%" y2="100%">
      <stop offset="0%" stop-color="#2563EB"/>
      <stop offset="100%" stop-color="#1D4ED8"/>
    </linearGradient>

    <linearGradient id="lineGrad" x1="0%" y1="0%" x2="100%" y2="0%">
      <stop offset="0%" stop-color="#2563EB"/>
      <stop offset="50%" stop-color="#7C3AED"/>
      <stop offset="100%" stop-color="#06B6D4"/>
    </linearGradient>
  </defs>

  <!-- Canvas Background -->
  <rect width="1200" height="675" fill="#080B11"/>

  <!-- Ambient Glow Effects -->
  <circle cx="1050" cy="500" r="300" fill="#2563EB" opacity="0.12" filter="url(#blur)"/>
  <circle cx="150" cy="200" r="250" fill="#7C3AED" opacity="0.08" filter="url(#blur)"/>
  <circle cx="600" cy="337" r="180" fill="#06B6D4" opacity="0.05" filter="url(#blur)"/>

  <!-- Background Data Grid (Technological Network Concept) -->
  <g opacity="0.15">
    <!-- horizontal grid lines -->
    <line x1="50" y1="120" x2="1150" y2="120" stroke="#374151" stroke-width="0.5" stroke-dasharray="5 5"/>
    <line x1="50" y1="240" x2="1150" y2="240" stroke="#374151" stroke-width="0.5" stroke-dasharray="5 5"/>
    <line x1="50" y1="360" x2="1150" y2="360" stroke="#374151" stroke-width="0.5" stroke-dasharray="5 5"/>
    <line x1="50" y1="480" x2="1150" y2="480" stroke="#374151" stroke-width="0.5" stroke-dasharray="5 5"/>
    <line x1="50" y1="600" x2="1150" y2="600" stroke="#374151" stroke-width="0.5" stroke-dasharray="5 5"/>
    <!-- vertical grid lines -->
    <line x1="150" y1="80" x2="150" y2="640" stroke="#374151" stroke-width="0.5" stroke-dasharray="5 5"/>
    <line x1="450" y1="80" x2="450" y2="640" stroke="#374151" stroke-width="0.5" stroke-dasharray="5 5"/>
    <line x1="750" y1="80" x2="750" y2="640" stroke="#374151" stroke-width="0.5" stroke-dasharray="5 5"/>
    <line x1="1050" y1="80" x2="1050" y2="640" stroke="#374151" stroke-width="0.5" stroke-dasharray="5 5"/>
  </g>

  <!-- ==================== NAVBAR ==================== -->
  <g transform="translate(0, 0)">
    <!-- Monogram logo in navbar -->
    <g transform="translate(60, 28) scale(0.045)">
      <path d="M 133.20000000000002,10.058488970345056 C 47.70000000000002,9.858488970345011 26.200000000000003,10.158488970344965 23.10000000000001,11.158488970344965 C 20.900000000000006,11.858488970345011 17.5,14.258488970344875 15.600000000000009,16.35848897034501 C 13.700000000000003,18.45848897034492 11.700000000000003,21.95848897034492 11.100000000000009,24.058488970345056 C 10.5,26.45848897034492 10.100000000000009,58.258488970344985 10.0,109.95848897034492 C 10.0,181.858488970345 10.200000000000003,192.55848897034494 11.5,196.45848897034492 C 12.400000000000006,198.858488970345 14.300000000000011,202.55848897034494 15.700000000000003,204.65848897034496 C 17.200000000000003,206.75848897034498 20.200000000000003,209.45848897034492 22.400000000000006,210.55848897034494 C 26.5,212.65848897034496 26.700000000000003,212.65848897034496 143.5,212.75848897034498 C 249.3,212.858488970345 261.5,213.05848897034494 270.8,214.55848897034494 C 276.5,215.55848897034494 286.8,217.45848897034492 293.8,218.858488970345 C 300.8,220.25848897034498 308.70000000000005,221.858488970345 311.5,222.358488970345 C 314.20000000000005,222.95848897034492 321.90000000000003,225.858488970345 328.5,228.858488970345 C 335.20000000000005,231.858488970345 344.6,235.65848897034496 349.5,237.45848897034492 C 354.5,239.15848897034496 365.20000000000005,243.95848897034492 373.40000000000003,248.05848897034494 C 381.70000000000005,252.15848897034496 391.8,257.85848897034504 396.0,260.658488970345 C 400.1,263.45848897034494 408.20000000000005,269.45848897034494 414.0,274.158488970345 C 419.80000000000007,278.758488970345 429.20000000000005,287.35848897034504 434.80000000000007,293.258488970345 C 440.5,299.05848897034497 445.9,305.158488970345 446.70000000000005,306.85848897034504 C 447.6,308.45848897034494 450.0,311.758488970345 452.1,314.05848897034497 C 454.20000000000005,316.35848897034504 458.1,321.55848897034497 C 460.6,325.55848897034497 C 463.20000000000005,329.55848897034497 466.80000000000007,336.258488970345 468.6,340.35848897034504 C 470.30000000000007,344.45848897034494 474.30000000000007,353.158488970345 477.5,359.758488970345 C 481.1,367.258488970345 484.1,375.35848897034504 C 485.70000000000005,381.758488970345 C 487.0,387.258488970345 490.1,398.05848897034497 492.6,405.55848897034497 C 495.0,413.05848897034497 497.0,420.158488970345 497.0,421.158488970345 C 497.0,422.258488970345 495.9,426.658488970345 494.6,430.95848897034494 C 493.4,435.35848897034504 490.0,446.55848897034497 487.20000000000005,455.85848897034504 C 484.4,465.258488970345 480.80000000000007,476.258488970345 479.20000000000005,480.35848897034504 C 477.5,484.45848897034506 474.80000000000007,491.258488970345 473.0,495.35848897034504 C 471.30000000000007,499.45848897034506 468.1,505.758488970345 465.9,509.35848897034504 C 463.70000000000005,512.958488970345 457.80000000000007,521.758488970345 452.70000000000005,529.0584889703449 C 445.0,540.058488970345 440.70000000000005,544.858488970345 426.5,558.4584889703449 C 417.20000000000005,567.358488970345 406.40000000000003,576.9584889703449 402.5,579.858488970345 C 398.70000000000005,582.6584889703449 392.40000000000003,587.058488970345 388.5,589.4584889703449 C 384.70000000000005,591.9584889703449 372.70000000000005,598.258488970345 362.0,603.558488970345 C 351.3,608.858488970345 340.0,613.9584889703449 337.0,614.858488970345 C 334.0,615.858488970345 327.90000000000003,618.1584889703449 323.5,620.058488970345 C 317.5,622.6584889703449 313.20000000000005,623.758488970345 306.5,624.4584889703449 C 301.6,624.858488970345 291.40000000000003,626.258488970345 284.0,627.358488970345 C 273.70000000000005,628.9584889703449 263.6,629.6584889703449 242.0,630.058488970345 C 216.40000000000003,630.558488970345 213.10000000000002,630.4584889703449 210.20000000000005,628.9584889703449 C 208.40000000000003,628.058488970345 206.5,626.258488970345 206.0,624.9584889703449 C 205.60000000000002,623.6584889703449 204.90000000000003,576.4584889703449 204.60000000000002,519.958488970345 C 204.0,420.158488970345 203.90000000000003,417.05848897034497 202.0,413.258488970345 C 200.90000000000003,411.158488970345 198.7,408.758488970345 197.10000000000002,407.95848897034494 C 194.60000000000002,406.658488970345 181.60000000000002,406.35848897034504 108.9,405.85848897034504 C 23.5,405.258488970345 23.5,405.258488970345 19.60000000000001,407.55848897034497 C 17.0,409.05848897034497 14.700000000000003,411.55848897034497 13.100000000000009,414.85848897034504 C 10.5,419.758488970345 10.5,419.758488970345 10.5,621.4584889703449 C 10.5,823.258488970345 10.5,823.258488970345 12.600000000000009,826.058488970345 C 13.700000000000003,827.558488970345 16.80000000000001,830.358488970345 19.400000000000006,832.058488970345 C 22.0,833.858488970345 25.60000000000001,835.6584889703449 27.30000000000001,836.058488970345 C 29.10000000000001,836.558488970345 79.30000000000001,836.558488970345 139.0,836.258488970345 C 209.2,835.858488970345 250.10000000000002,835.258488970345 255.0,834.558488970345 C 259.1,833.958488970345 272.90000000000003,832.558488970345 285.5,831.358488970345 C 298.20000000000005,830.1584889703449 313.5,828.358488970345 319.5,827.1584889703449 C 325.6,826.058488970345 336.70000000000005,823.6584889703449 344.20000000000005,821.758488970345 C 351.8,819.858488970345 360.1,817.458488970345 362.70000000000005,816.458488970345 C 365.40000000000003,815.458488970345 370.90000000000003,813.858488970345 375.0,812.858488970345 C 379.1,811.858488970345 384.1,810.258488970345 386.0,809.358488970345 C 387.90000000000003,808.358488970345 391.3,807.058488970345 393.5,806.358488970345 C 395.70000000000005,805.6584889703449 406.3,801.358488970345 417.0,796.858488970345 C 427.70000000000005,792.358488970345 437.6,788.258488970345 439.0,787.858488970345 C 440.4,787.4584889703449 444.9,785.1584889703449 449.0,782.858488970345 C 453.1,780.558488970345 461.20000000000005,776.058488970345 467.0,772.858488970345 C 472.80000000000007,772.858488970345 472.80000000000007,772.858488970345 472.80000000000007,772.858488970345" fill="url(#dmGrad)"/>
    </g>
    
    <text x="110" y="47" class="brand-name">DANIEL</text>
    <text x="190" y="47" class="brand-name" fill="#3B82F6">MOLINA</text>

    <!-- Navigation links -->
    <text x="590" y="45" class="nav-link">Método</text>
    <text x="680" y="45" class="nav-link">Servicios</text>
    <text x="780" y="45" class="nav-link">Portafolio</text>
    <text x="880" y="45" class="nav-link">Sobre mí</text>
    <text x="970" y="45" class="nav-link">Contacto</text>

    <!-- Button Hablemos -->
    <rect x="1030" y="22" width="110" height="34" rx="17" fill="url(#btnGrad)"/>
    <text x="1085" y="44" class="btn-text">HABLEMOS</text>
  </g>

  <!-- ==================== HERO CONTENT (LEFT) ==================== -->
  <g transform="translate(60, 150)">
    <!-- Cyan Tagline -->
    <text x="0" y="0" class="tagline">DATA SCIENCE, AUTOMATIZACIÓN E IA APLICADA</text>

    <!-- Giant Title (Replicating exact wrap & style of web landing page) -->
    <text x="0" y="70" class="hero-title">Datos que</text>
    <text x="0" y="140" class="hero-title">generan</text>
    <text x="0" y="210" class="hero-title">claridad.</text>
    <text x="0" y="280" class="hero-title">Sistemas que</text>
    <text x="0" y="350" class="hero-title">impulsan</text>
    <!-- growth styled with beautiful grandient -->
    <text x="0" y="420" class="hero-title" fill="url(#crecimientoGrad)">crecimiento.</text>

    <!-- Paragraph copy under the title -->
    <text x="0" y="465" class="hero-desc">Dashboards, automatizaciones, IA y páginas web que</text>
    <text x="0" y="490" class="hero-desc">convierten información en decisiones estratégicas.</text>
  </g>

  <!-- ==================== DASHBOARD MOCKUP (RIGHT) ==================== -->
  <g transform="translate(680, 140)">
    <!-- Dashboard Card Container -->
    <rect x="0" y="0" width="460" height="460" rx="20" fill="#0C101A" stroke="#1F2937" stroke-width="1.5"/>
    <rect x="1" y="1" width="458" height="458" rx="19" fill="#0F1422" opacity="0.5"/>

    <!-- Browser controls header -->
    <g transform="translate(20, 20)">
      <!-- Browser dots -->
      <circle cx="410" cy="12" r="5" fill="#EF4444"/>
      <circle cx="395" cy="12" r="5" fill="#FBBF24"/>
      <circle cx="380" cy="12" r="5" fill="#10B981"/>

      <!-- Title: Resumen General -->
      <text x="0" y="15" class="dash-title">Resumen general</text>
      
      <!-- Pill Live Insight -->
      <rect x="250" y="1" width="100" height="22" rx="11" fill="#10B981" opacity="0.15"/>
      <rect x="250" y="1" width="100" height="22" rx="11" stroke="#10B981" stroke-width="1" fill="none"/>
      <circle cx="262" cy="12" r="3" fill="#10B981"/>
      <text x="303" y="15" class="dash-pill-text" fill="#10B981">LIVE INSIGHT</text>
    </g>

    <!-- INNER CARD 1: Ingresos -->
    <g transform="translate(20, 60)">
      <!-- Container -->
      <rect x="0" y="0" width="200" height="155" rx="16" fill="#080C14" stroke="#1F2937" stroke-width="1"/>
      
      <!-- Copy -->
      <text x="20" y="32" class="dash-label">INGRESOS</text>
      <text x="20" y="70" class="dash-val">$24,580</text>
      
      <!-- Green Trend Tag -->
      <rect x="20" y="85" width="70" height="20" rx="10" fill="#10B981" opacity="0.15"/>
      <path d="M 30,95 L 34,91 L 38,95" stroke="#10B981" stroke-width="1.5" fill="none"/>
      <text x="45" y="99" class="dash-stat" fill="#10B981">▲ 12.4%</text>

      <!-- Sparkline chart -->
      <path d="M 20,135 Q 50,110 80,130 T 140,115 T 180,125" stroke="#06B6D4" stroke-width="2" fill="none" opacity="0.8"/>
      <circle cx="180" cy="125" r="3" fill="#00F2FE"/>
    </g>

    <!-- INNER CARD 2: Gauges (Usuarios & Conversión) -->
    <g transform="translate(240, 60)">
      <!-- Container -->
      <rect x="0" y="0" width="200" height="155" rx="16" fill="#080C14" stroke="#1F2937" stroke-width="1"/>

      <!-- Gauge 1: 68% Usuarios -->
      <g transform="translate(10, 0)">
        <circle cx="45" cy="65" r="32" stroke="#1F2937" stroke-width="5" fill="none"/>
        <circle cx="45" cy="65" r="32" stroke="#2563EB" stroke-width="5" fill="none" 
                stroke-dasharray="201" stroke-dashoffset="64" stroke-linecap="round" transform="rotate(-90 45 65)"/>
        <text x="45" y="70" font-family="'Plus Jakarta Sans', sans-serif" font-weight="800" font-size="14" fill="#FFFFFF" text-anchor="middle">68%</text>
        <text x="45" y="125" font-family="'Plus Jakarta Sans', sans-serif" font-weight="600" font-size="11" fill="#9CA3AF" text-anchor="middle">Usuarios</text>
      </g>

      <!-- Gauge 2: 82% Conversión -->
      <g transform="translate(110, 0)">
        <circle cx="45" cy="65" r="32" stroke="#1F2937" stroke-width="5" fill="none"/>
        <circle cx="45" cy="65" r="32" stroke="#7C3AED" stroke-width="5" fill="none" 
                stroke-dasharray="201" stroke-dashoffset="36" stroke-linecap="round" transform="rotate(-90 45 65)"/>
        <text x="45" y="70" font-family="'Plus Jakarta Sans', sans-serif" font-weight="800" font-size="14" fill="#FFFFFF" text-anchor="middle">82%</text>
        <text x="45" y="125" font-family="'Plus Jakarta Sans', sans-serif" font-weight="600" font-size="11" fill="#9CA3AF" text-anchor="middle">Conversión</text>
      </g>
    </g>

    <!-- INNER CARD 3: Flujo de Datos Mensual (Wave graph) -->
    <g transform="translate(20, 235)">
      <!-- Container -->
      <rect x="0" y="0" width="420" height="205" rx="16" fill="#080C14" stroke="#1F2937" stroke-width="1"/>
      
      <!-- Label -->
      <text x="20" y="30" class="chart-title">FLUJO DE DATOS MENSUAL</text>

      <!-- Grid Helper Lines -->
      <line x1="20" y1="70" x2="400" y2="70" stroke="#1F2937" stroke-width="0.75" stroke-dasharray="3 3"/>
      <line x1="20" y1="120" x2="400" y2="120" stroke="#1F2937" stroke-width="0.75" stroke-dasharray="3 3"/>
      <line x1="20" y1="170" x2="400" y2="170" stroke="#1F2937" stroke-width="0.75" stroke-dasharray="3 3"/>

      <!-- Glowing Chart Path (Wave) -->
      <path d="M 20,160 Q 60,110 100,140 T 180,85 T 260,130 T 340,75 T 400,90" stroke="url(#lineGrad)" stroke-width="3.5" fill="none" stroke-linecap="round"/>

      <!-- Grid Dot Nodes -->
      <circle cx="100" cy="140" r="5" fill="#2563EB" stroke="#080C14" stroke-width="1.5"/>
      <circle cx="180" cy="85" r="5" fill="#7C3AED" stroke="#080C14" stroke-width="1.5"/>
      <circle cx="260" cy="130" r="5" fill="#06B6D4" stroke="#080C14" stroke-width="1.5"/>
      <circle cx="340" cy="75" r="5" fill="#00F2FE" stroke="#080C14" stroke-width="1.5"/>
    </g>
  </g>
</svg>
